<svg width="640" height="480" viewBox="0 0 640 480" xmlns="http://www.w3.org/2000/svg" role="img" aria-label="Ilustración de panel bibliotecario">
  <defs>
    <linearGradient id="gradient" x1="0%" y1="0%" x2="100%" y2="100%">
      <stop offset="0%" stop-color="#4f46e5" />
      <stop offset="50%" stop-color="#6366f1" />
      <stop offset="100%" stop-color="#22d3ee" />
    </linearGradient>
  </defs>
  <rect width="640" height="480" rx="32" fill="url(#gradient)" opacity="0.1" />
  <g transform="translate(60 60)">
    <rect width="520" height="320" rx="24" fill="#ffffff" stroke="#cbd5f5" stroke-width="2" />
    <rect x="32" y="48" width="456" height="48" rx="12" fill="#f4f6fb" />
    <rect x="32" y="120" width="208" height="152" rx="16" fill="#eef2ff" />
    <rect x="280" y="120" width="208" height="152" rx="16" fill="#ecfeff" />
    <rect x="64" y="64" width="80" height="16" rx="8" fill="#4f46e5" opacity="0.8" />
    <rect x="160" y="64" width="104" height="16" rx="8" fill="#818cf8" opacity="0.6" />
    <rect x="64" y="144" width="144" height="16" rx="8" fill="#4f46e5" opacity="0.4" />
    <rect x="64" y="176" width="128" height="16" rx="8" fill="#4f46e5" opacity="0.4" />
    <rect x="64" y="208" width="104" height="16" rx="8" fill="#4f46e5" opacity="0.4" />
    <rect x="312" y="144" width="144" height="16" rx="8" fill="#14b8a6" opacity="0.4" />
    <rect x="312" y="176" width="128" height="16" rx="8" fill="#14b8a6" opacity="0.4" />
    <rect x="312" y="208" width="160" height="16" rx="8" fill="#14b8a6" opacity="0.4" />
    <circle cx="64" cy="280" r="12" fill="#4f46e5" opacity="0.35" />
    <circle cx="104" cy="280" r="12" fill="#22d3ee" opacity="0.35" />
    <circle cx="144" cy="280" r="12" fill="#0ea5e9" opacity="0.35" />
    <circle cx="312" cy="280" r="12" fill="#14b8a6" opacity="0.35" />
    <circle cx="352" cy="280" r="12" fill="#0d9488" opacity="0.35" />
    <circle cx="392" cy="280" r="12" fill="#2dd4bf" opacity="0.35" />
  </g>
  <g transform="translate(120 380)">
    <rect width="400" height="56" rx="28" fill="#1d4ed8" opacity="0.15" />
    <rect x="16" y="16" width="160" height="24" rx="12" fill="#2563eb" opacity="0.6" />
    <rect x="192" y="16" width="96" height="24" rx="12" fill="#6366f1" opacity="0.6" />
    <rect x="304" y="16" width="80" height="24" rx="12" fill="#a5b4fc" opacity="0.6" />
  </g>
</svg>
